# xmcd CD database file
#
# Track frame offsets:
#	150
#	19940
#	34387
#	50947
#	68340
#	88210
#	104407
#	119467
#	137917
#	153097
#
# Disc length: 2263 seconds
#
# Revision: 1
# Processed by: cddbd v1.5.2PL0 Copyright (c) Steve Scherf et al.
# Submitted via: CDex 1.70beta2
#
DISCID=8b08d50a
DTITLE=Sarah Beth Keeley - Reinventing Myself
DYEAR=2008
DGENRE=Country
TTITLE0=Re-Inventing Myself
TTITLE1=Through It All
TTITLE2=Touch Of Mascara
TTITLE3=With Your Goodbye
TTITLE4=When Was The Last Time
TTITLE5=Downtown With The Girls
TTITLE6=How Much
TTITLE7=After You
TTITLE8=Good Kind of Love
TTITLE9=Let Me Be Your Friend
EXTD=YEAR: 2008
EXTT0=
EXTT1=
EXTT2=
EXTT3=
EXTT4=
EXTT5=
EXTT6=
EXTT7=
EXTT8=
EXTT9=
PLAYORDER=
